:version 1.10
:name ASF
:units
  mass 1
  length 1
  angle deg
:documentation
  ASF file generated by Kaydara
:root
  axis xyz
  order  tx ty tz rx ry rz
  position 0 0 0
  orientation 0 0 0
:bonedata
  begin
    id 1
    name lfemurDummy
    direction 0.61522 -0.761478 0.204097
    length 5.68318
    axis 0 -0 0 xyz
  end
  begin
    id 2
    name lfemur
    direction 0.34202 -0.939693 -5.84747e-008
    length 16.9147
    axis 0 -0 20 xyz
    dof rx ry rz
    limits( -inf , inf )
( -inf , inf )
( -inf , inf )

  end
  begin
    id 3
    name ltibia
    direction 0.34202 -0.939693 1.20839e-009
    length 18.0532
    axis 0 -0 20 xyz
    dof rz ry rx
    limits( -inf , inf )
( -inf , inf )
( -inf , inf )

  end
  begin
    id 4
    name lfoot
    direction 0.0841971 -0.23133 0.969225
    length 5.23822
    axis -90 7.62852e-016 20 xyz
    dof ry rx rz
    limits( -inf , inf )
( -inf , inf )
( -inf , inf )

  end
  begin
    id 5
    name ltoes
    direction 0 0 0
    length 0
    axis 0 0 0 xyz
    dof rz ry rx
    limits( -inf , inf )
( -inf , inf )
( -inf , inf )

  end
  begin
    id 6
    name rfemurDummy
    direction -0.625247 -0.75382 0.202044
    length 5.74091
    axis 0 -0 0 xyz
  end
  begin
    id 7
    name rfemur
    direction -0.34202 -0.939693 -1.47013e-008
    length 16.4922
    axis 0 -0 -20 xyz
    dof rx ry rz
    limits( -inf , inf )
( -inf , inf )
( -inf , inf )

  end
  begin
    id 8
    name rtibia
    direction -0.34202 -0.939693 -7.74345e-010
    length 18.2421
    axis 0 -0 -20 xyz
    dof rz ry rx
    limits( -inf , inf )
( -inf , inf )
( -inf , inf )

  end
  begin
    id 9
    name rfoot
    direction -0.124331 -0.341598 0.931586
    length 5.45787
    axis -90 -7.62852e-016 -20 xyz
    dof ry rx rz
    limits( -inf , inf )
( -inf , inf )
( -inf , inf )

  end
  begin
    id 10
    name rtoes
    direction 0 0 0
    length 0
    axis 0 0 0 xyz
    dof rz ry rx
    limits( -inf , inf )
( -inf , inf )
( -inf , inf )

  end
  begin
    id 11
    name lowerbackDummy
    direction 0 0 0
    length 0
    axis 0 -0 0 xyz
  end
  begin
    id 12
    name lowerback
    direction -0.0218484 0.994884 -0.0986304
    length 4.45607
    axis 0 -0 0 xyz
    dof rx ry rz
    limits( -inf , inf )
( -inf , inf )
( -inf , inf )

  end
  begin
    id 13
    name upperback
    direction -0.00973057 0.999717 -0.0217111
    length 4.47449
    axis 0 -0 0 xyz
    dof rx ry rz
    limits( -inf , inf )
( -inf , inf )
( -inf , inf )

  end
  begin
    id 14
    name thorax
    direction -0.000928171 0.999699 0.0245198
    length 4.50973
    axis 0 -0 0 xyz
    dof rx ry rz
    limits( -inf , inf )
( -inf , inf )
( -inf , inf )

  end
  begin
    id 15
    name rclavicle
    direction -0.9009 0.425937 -0.0834055
    length 7.28587
    axis 0 -0 0 xyz
    dof rx ry rz
    limits( -inf , inf )
( -inf , inf )
( -inf , inf )

  end
  begin
    id 16
    name rhumerus
    direction -1 -2.23604e-007 -1.42637e-007
    length 13.5704
    axis 180 30 90 xyz
    dof rx ry rz
    limits( -inf , inf )
( -inf , inf )
( -inf , inf )

  end
  begin
    id 17
    name rradius
    direction -1 5.68281e-008 -4.4952e-007
    length 8.06782
    axis 180 30 90 xyz
    dof rz ry rx
    limits( -inf , inf )
( -inf , inf )
( -inf , inf )

  end
  begin
    id 18
    name rwrist
    direction -1 1.51393e-007 1.38143e-007
    length 4.03391
    axis -90 -90 0 xyz
    dof rz rx ry
    limits( -inf , inf )
( -inf , inf )
( -inf , inf )

  end
  begin
    id 19
    name rthumb
    direction 0 0 0
    length 0
    axis 0 0 0 xyz
    dof ry rx rz
    limits( -inf , inf )
( -inf , inf )
( -inf , inf )

  end
  begin
    id 20
    name rhand
    direction -1 -3.34077e-007 -5.59631e-007
    length 1.29744
    axis -90 -90 0 xyz
    dof ry rx rz
    limits( -inf , inf )
( -inf , inf )
( -inf , inf )

  end
  begin
    id 21
    name rfingers
    direction 0 0 0
    length 0
    axis 0 0 0 xyz
    dof rz ry rx
    limits( -inf , inf )
( -inf , inf )
( -inf , inf )

  end
  begin
    id 22
    name lclavicle
    direction 0.940017 0.332249 -0.0773232
    length 8.29589
    axis 0 -0 0 xyz
    dof rx ry rz
    limits( -inf , inf )
( -inf , inf )
( -inf , inf )

  end
  begin
    id 23
    name lhumerus
    direction 1 7.41158e-008 -1.44768e-008
    length 12.0042
    axis 180 -30 -90 xyz
    dof rx ry rz
    limits( -inf , inf )
( -inf , inf )
( -inf , inf )

  end
  begin
    id 24
    name lradius
    direction 1 -1.32972e-007 3.10821e-007
    length 8.1902
    axis 180 -30 -90 xyz
    dof rz ry rx
    limits( -inf , inf )
( -inf , inf )
( -inf , inf )

  end
  begin
    id 25
    name lwrist
    direction 1 3.08957e-007 4.01394e-007
    length 4.09509
    axis -90 90 0 xyz
    dof rz rx ry
    limits( -inf , inf )
( -inf , inf )
( -inf , inf )

  end
  begin
    id 26
    name lthumb
    direction 0 0 0
    length 0
    axis 0 0 0 xyz
    dof ry rx rz
    limits( -inf , inf )
( -inf , inf )
( -inf , inf )

  end
  begin
    id 27
    name lhand
    direction 1 -1.64125e-007 -6.99514e-007
    length 1.37229
    axis -90 90 0 xyz
    dof ry rx rz
    limits( -inf , inf )
( -inf , inf )
( -inf , inf )

  end
  begin
    id 28
    name lfingers
    direction 0 0 0
    length 0
    axis 0 0 0 xyz
    dof rz ry rx
    limits( -inf , inf )
( -inf , inf )
( -inf , inf )

  end
  begin
    id 29
    name lowerneck
    direction -0.030798 0.998024 0.0547665
    length 3.93918
    axis 0 -0 0 xyz
    dof rx ry rz
    limits( -inf , inf )
( -inf , inf )
( -inf , inf )

  end
  begin
    id 30
    name upperneck
    direction 0.0531588 0.996611 -0.0627736
    length 3.95491
    axis 0 -0 0 xyz
    dof rx ry rz
    limits( -inf , inf )
( -inf , inf )
( -inf , inf )

  end
  begin
    id 31
    name head
    direction 0 0 0
    length 0
    axis 0 0 0 xyz
    dof rx ry rz
    limits( -inf , inf )
( -inf , inf )
( -inf , inf )

  end
:hierarchy
  begin
    root lfemurDummy rfemurDummy lowerbackDummy
    lfemurDummy lfemur
    lfemur ltibia
    ltibia lfoot
    lfoot ltoes
    rfemurDummy rfemur
    rfemur rtibia
    rtibia rfoot
    rfoot rtoes
    lowerbackDummy lowerback
    lowerback upperback
    upperback thorax
    thorax rclavicle lclavicle lowerneck
    rclavicle rhumerus
    rhumerus rradius
    rradius rwrist
    rwrist rthumb rhand
    rhand rfingers
    lclavicle lhumerus
    lhumerus lradius
    lradius lwrist
    lwrist lthumb lhand
    lhand lfingers
    lowerneck upperneck
    upperneck head
  end

:SAMPLES-PER-SECOND 30
:FULLY-SPECIFIED
:DEGREES
144
root  2.51377774 35.79177856 5.823977913 -177.7170105 -58.60199738 171.1789856
lowerback  14.61069965 3.831239939 -5.694039822
upperback  2.699899912 3.727400064 -2.915030003
thorax  -5.486889839 1.781509995 -0.5815830231
lowerneck  -4.611909866 11.94610023 1.382590055
upperneck  7.630630016 16.35519981 -6.194399834
head  4.029270172 7.840640068 -1.408910036
lclavicle  0 -9.442270133e-015 7.951389973e-016
lhumerus  -58.68130112 16.30310059 36.49909973
lradius  2.422697213e-031 -2.568926284e-031 133.3220062
lwrist  -7.062250077e-031 3.531125038e-031 49.02859879
lhand  -1.496451383e-031 -27.76390076 20.11240005
lfingers  90 7.125020027 -90
lthumb  89.89689403 5.08795885 91.16245106
rclavicle  0 -9.442270133e-015 7.951389973e-016
rhumerus  -48.48249817 23.19169998 -76.46099854
rradius  7.236030772e-032 3.456189032e-031 78.17510223
rwrist  0 4.413906298e-031 -40.49280167
rhand  -7.920061211e-032 -33.2840004 9.303460121
rfingers  -90 -7.125020027 -90
rthumb  -92.93752616 -24.25625642 -97.11982154
rfemur  -14.07400036 26.16290092 -10.86369991
rtibia  -0 0 54.58209991
rfoot  -5.292614183e-032 -20.24500084 0.4770079851
rtoes  5.373923086 19.29304026 -105.8922705
lfemur  -9.340950012 -5.114600182 4.407209873
ltibia  -0 0 45.18519974
lfoot  -0 -10.80749989 18.49349976
ltoes  -4.250644065 -19.5611806 -102.515957
145
root  2.29559996 35.68933442 6.141622048 -178.3280029 -59.14900208 171.4869995
lowerback  14.71170044 3.471299887 -6.405759811
upperback  2.822419882 3.149120092 -2.683510065
thorax  -5.442140102 1.506700039 0.1733359993
lowerneck  -4.716289997 12.29059982 1.336210012
upperneck  7.315569878 16.85519981 -6.851490021
head  4.028490067 8.060910225 -1.579530001
lclavicle  0 -9.442270133e-015 7.951389973e-016
lhumerus  -56.66120148 17.41049957 32.99620056
lradius  2.285070301e-031 -2.692080563e-031 130.3249969
lwrist  0 5.296687558e-031 54.26869965
lhand  -1.496451383e-031 -27.76390076 20.11240005
lfingers  90 7.125020027 -90
lthumb  89.89689403 5.08795885 91.16245106
rclavicle  0 -9.442270133e-015 7.951389973e-016
rhumerus  -48.50699997 24.36459923 -76.67700195
rradius  7.446119243e-032 3.45172379e-031 77.82659912
rwrist  0 1.765562519e-031 -40.27939987
rhand  -7.920061211e-032 -33.2840004 9.303460121
rfingers  -90 -7.125020027 -90
rthumb  -92.93752616 -24.25625642 -97.11982154
rfemur  -13.93130016 27.4489994 -10.8114996
rtibia  -0 0 55.43310165
rfoot  -4.66089336e-032 -18.73600006 -0.3356670141
rtoes  5.373923086 19.29304026 -105.8922705
lfemur  -9.762140274 -5.313529968 4.103919983
ltibia  -0 0 46.33750153
lfoot  -0 -12.20569992 18.88850021
ltoes  -4.250644065 -19.5611806 -102.515957
146
root  2.08730003 35.57222321 6.452355422 -179.4630127 -59.98999786 172.4760132
lowerback  14.72049999 3.076319933 -6.702690125
upperback  2.950449944 2.607209921 -2.419889927
thorax  -5.306499958 1.244120002 0.729861021
lowerneck  -4.816319942 12.54580021 1.298560023
upperneck  6.999489784 17.22260094 -7.395450115
head  4.011410236 8.222350121 -1.724140048
lclavicle  0 -9.442270133e-015 7.951389973e-016
lhumerus  -53.70859909 18.57749939 30.05240059
lradius  2.113400902e-031 -2.828847939e-031 126.7630005
lwrist  -7.062250077e-031 1.059337512e-030 58.83359909
lhand  -1.496451383e-031 -27.76390076 20.11240005
lfingers  90 7.125020027 -90
lthumb  89.89689403 5.08795885 91.16245106
rclavicle  0 -9.442270133e-015 7.951389973e-016
rhumerus  -48.37779999 24.92939949 -76.71829987
rradius  7.715358444e-032 3.445805636e-031 77.37930298
rwrist  0 2.648343779e-031 -39.54259872
rhand  -7.920061211e-032 -33.2840004 9.303460121
rfingers  -90 -7.125020027 -90
rthumb  -92.93752616 -24.25625642 -97.11982154
rfemur  -13.70800018 29.05400085 -10.35249996
rtibia  -0 0 56.32759857
rfoot  -4.903761312e-032 -16.98859978 0.1459800005
rtoes  5.373923086 19.29304026 -105.8922705
lfemur  -10.45610046 -5.094130039 4.246669769
ltibia  -0 0 47.55390167
lfoot  -0 -12.86330032 19.03910065
ltoes  -4.250644065 -19.5611806 -102.515957
147
root  1.879775618 35.45711247 6.734199974 179.2309875 -61.17199707 173.6740112
lowerback  14.5486002 2.649209976 -6.954969883
upperback  3.09968996 2.047620058 -2.189009905
thorax  -5.034100056 0.9677129984 1.235540032
lowerneck  -4.780079842 12.75510025 1.340540051
upperneck  6.713039875 17.50569916 -7.747300148
head  3.962729931 8.357210159 -1.833459973
lclavicle  0 -9.442270133e-015 7.951389973e-016
lhumerus  -49.92079926 19.8178997 27.69140053
lradius  1.900753399e-031 -2.975899957e-031 122.5670013
lwrist  -3.531125038e-031 3.531125038e-031 62.02349854
lhand  -1.496451383e-031 -27.76390076 20.11240005
lfingers  90 7.125020027 -90
lthumb  89.89689403 5.08795885 91.16245106
rclavicle  0 -9.442270133e-015 7.951389973e-016
rhumerus  -48.22169876 25.04490089 -76.75769806
rradius  7.857948858e-032 3.442581943e-031 77.14209747
rwrist  0 8.827812596e-032 -39.52190018
rhand  -7.920061211e-032 -33.2840004 9.303460121
rfingers  -90 -7.125020027 -90
rthumb  -92.93752616 -24.25625642 -97.11982154
rfemur  -13.3125 30.59810066 -9.55850029
rtibia  -0 0 57.30199814
rfoot  -4.853532692e-032 -14.92580032 0.207291007
rtoes  5.373923086 19.29304026 -105.8922705
lfemur  -11.28629971 -4.829289913 4.575779915
ltibia  -0 0 48.78950119
lfoot  -0 -14.0145998 18.55369949
ltoes  -4.250644065 -19.5611806 -102.515957
148
root  1.669428855 35.36933238 6.984000319 177.7680054 -62.65899658 175.1119995
lowerback  14.25520039 2.206389904 -7.226240158
upperback  3.216300011 1.479750037 -1.952749968
thorax  -4.719460011 0.686785996 1.755789995
lowerneck  -4.703790188 12.93879986 1.375669956
upperneck  6.584599972 17.74640083 -7.866129875
head  3.933199883 8.477359772 -1.868530035
lclavicle  0 -9.442270133e-015 7.951389973e-016
lhumerus  -45.35139847 21.16300011 25.96439934
lradius  1.63704861e-031 -3.128724322e-031 117.6200027
lwrist  -3.531125038e-031 7.062250077e-031 63.6330986
lhand  -1.496451383e-031 -27.76390076 20.11240005
lfingers  90 7.125020027 -90
lthumb  89.89689403 5.08795885 91.16245106
rclavicle  0 -9.442270133e-015 7.951389973e-016
rhumerus  -48.14929962 24.9368 -76.89810181
rradius  7.884864143e-032 3.441966475e-031 77.09729767
rwrist  7.062250077e-031 2.648343779e-031 -40.26750183
rhand  -7.920061211e-032 -33.2840004 9.303460121
rfingers  -90 -7.125020027 -90
rthumb  -92.93752616 -24.25625642 -97.11982154
rfemur  -12.73429966 32.05059814 -8.386790276
rtibia  -0 0 58.24580002
rfoot  -4.734906747e-032 -12.60369968 -0.0803873986
rtoes  5.373923086 19.29304026 -105.8922705
lfemur  -12.28359985 -4.637229919 5.0583601
ltibia  -0 0 49.99620056
lfoot  -0 -15.52110004 17.89089966
ltoes  -4.250644065 -19.5611806 -102.515957
149
root  1.461951094 35.297556 7.221710776 175.9309998 -64.43900299 177.0840149
lowerback  13.94489956 1.707649946 -7.332449913
upperback  3.207040071 0.8699039817 -1.684900045
thorax  -4.512310028 0.3921329975 2.215450048
lowerneck  -4.568210125 13.07390022 1.334560037
upperneck  6.663889885 17.9253006 -7.808199883
head  3.933969975 8.565580368 -1.838639975
lclavicle  0 -9.442270133e-015 7.951389973e-016
lhumerus  -40.16550064 22.56159973 24.95610046
lradius  1.318667526e-031 -3.275661764e-031 111.9280014
lwrist  -7.062250077e-031 7.062250077e-031 63.69070053
lhand  -1.496451383e-031 -27.76390076 20.11240005
lfingers  90 7.125020027 -90
lthumb  89.89689403 5.08795885 91.16245106
rclavicle  0 -9.442270133e-015 7.951389973e-016
rhumerus  -48.2621994 24.7031002 -77.228302
rradius  7.861492307e-032 3.442501042e-031 77.13619995
rwrist  7.062250077e-031 5.296687558e-031 -41.62749863
rhand  -7.920061211e-032 -33.2840004 9.303460121
rfingers  -90 -7.125020027 -90
rthumb  -92.93752616 -24.25625642 -97.11982154
rfemur  -12.02789974 33.34260178 -6.860459805
rtibia  -0 0 59.0870018
rfoot  -4.764170311e-032 -10.13869953 -0.1408009976
rtoes  5.373923086 19.29304026 -105.8922705
lfemur  -13.54599953 -4.575290203 5.759059906
ltibia  -0 0 51.07360077
lfoot  -0 -16.71430016 17.27619934
ltoes  -4.250644065 -19.5611806 -102.515957
150
root  1.277806627 35.23044436 7.433400192 173.5650024 -66.60399628 179.7340088
lowerback  13.66839981 1.146199942 -7.382040024
upperback  3.078160048 0.1843239963 -1.387500048
thorax  -4.433320045 0.06894750148 2.679480076
lowerneck  -4.502140045 13.16829967 1.173629999
upperneck  7.085649967 18.05999947 -7.491399765
head  4.02312994 8.623889923 -1.697029948
lclavicle  0 -9.442270133e-015 7.951389973e-016
lhumerus  -34.15179825 24.07710075 24.82309914
lradius  9.40266568e-032 -3.403636705e-031 105.4430008
lwrist  -1.059337512e-030 1.059337512e-030 62.4477005
lhand  -1.496451383e-031 -27.76390076 20.11240005
lfingers  90 7.125020027 -90
lthumb  89.89689403 5.08795885 91.16245106
rclavicle  0 -9.442270133e-015 7.951389973e-016
rhumerus  -48.46099854 24.08379936 -77.62349701
rradius  7.820689486e-032 3.443430295e-031 77.20410156
rwrist  7.062250077e-031 3.531125038e-031 -43.33280182
rhand  -7.920061211e-032 -33.2840004 9.303460121
rfingers  -90 -7.125020027 -90
rthumb  -92.93752616 -24.25625642 -97.11982154
rfemur  -11.17339993 34.22750092 -4.974460125
rtibia  -0 0 59.75389862
rfoot  -4.452375235e-032 -7.537199974 -0.3709470034
rtoes  5.373923086 19.29304026 -105.8922705
lfemur  -15.18260002 -4.589580059 6.747990131
ltibia  -0 0 51.94820023
lfoot  -0 -17.74629974 16.05310059
ltoes  -4.250644065 -19.5611806 -102.515957
151
root  1.099013344 35.17888888 7.607955632 170.3630066 -69.2480011 -176.7709961
lowerback  13.51850033 0.531611979 -7.557700157
upperback  2.889980078 -0.5986520052 -1.013509989
thorax  -4.463319778 -0.2947030067 3.306720018
lowerneck  -4.388410091 13.23200035 0.9890000224
upperneck  7.665919781 18.15369987 -7.079179764
head  4.144070148 8.65970993 -1.523470044
lclavicle  0 -9.442270133e-015 7.951389973e-016
lhumerus  -27.16379929 25.63529968 25.7336998
lradius  5.074465427e-032 -3.494473071e-031 98.26239777
lwrist  -7.062250077e-031 7.062250077e-031 60.25740051
lhand  -1.496451383e-031 -27.76390076 20.11240005
lfingers  90 7.125020027 -90
lthumb  89.89689403 5.08795885 91.16245106
rclavicle  0 -9.442270133e-015 7.951389973e-016
rhumerus  -48.6006012 23.02890015 -77.79160309
rradius  7.81720469e-032 3.443509423e-031 77.2098999
rwrist  0 3.531125038e-031 -44.49779892
rhand  -7.920061211e-032 -33.2840004 9.303460121
rfingers  -90 -7.125020027 -90
rthumb  -92.93752616 -24.25625642 -97.11982154
rfemur  -9.90182972 34.67240143 -2.686569929
rtibia  -0 0 60.16609955
rfoot  -5.53650206e-032 -4.762989998 -1.004179955
rtoes  5.373923086 19.29304026 -105.8922705
lfemur  -17.02770042 -4.883140087 7.905600071
ltibia  -0 0 52.58779907
lfoot  -0 -18.4090004 14.38249969
ltoes  -4.250644065 -19.5611806 -102.515957
